<svg xmlns="http://www.w3.org/2000/svg" width="24" height="24" viewBox="0 0 24 24">
  <!-- Terminal-tab icon: the icon.svg pig without its rounded-square background,
       simplified for legibility at 16px (no blush/highlight dots -- they blur). -->
  <defs>
    <radialGradient id="face" cx="0.42" cy="0.35" r="0.75">
      <stop offset="0" stop-color="#ffe9df"/>
      <stop offset="1" stop-color="#f6c2ad"/>
    </radialGradient>
  </defs>
  <g transform="translate(12 12) scale(0.1875)">
    <path d="M-22 -26 C-32 -40 -44 -44 -49 -39 C-52 -32 -47 -16 -34 -8 Z" fill="#f2a88c"/>
    <path d="M22 -26 C32 -40 44 -44 49 -39 C52 -32 47 -16 34 -8 Z" fill="#f2a88c"/>
    <path d="M-24 -28 C-31 -37 -39 -39 -42 -36 C-43 -31 -40 -21 -33 -15 Z" fill="#e58467"/>
    <path d="M24 -28 C31 -37 39 -39 42 -36 C43 -31 40 -21 33 -15 Z" fill="#e58467"/>
    <ellipse cx="0" cy="0" rx="40" ry="36" fill="url(#face)"/>
    <circle cx="-15" cy="-9" r="5" fill="#3a2320"/>
    <circle cx="15" cy="-9" r="5" fill="#3a2320"/>
    <ellipse cx="0" cy="12" rx="17" ry="12.5" fill="#ee9479"/>
    <ellipse cx="0" cy="10.5" rx="15" ry="10.5" fill="#f4a58c"/>
    <ellipse cx="-6.5" cy="12" rx="3.3" ry="4.6" fill="#8a3a2a"/>
    <ellipse cx="6.5" cy="12" rx="3.3" ry="4.6" fill="#8a3a2a"/>
  </g>
</svg>
